<svg width="240" height="240" viewBox="0 0 240 240" fill="none" xmlns="http://www.w3.org/2000/svg">
<mask id="mask0_13_51" style="mask-type:alpha" maskUnits="userSpaceOnUse" x="0" y="0" width="240" height="240">
<rect width="240" height="240" fill="#D9D9D9"/>
</mask>
<g mask="url(#mask0_13_51)">
<path d="M40.0001 214.125C34.5001 214.125 29.7917 212.167 25.8751 208.25C21.9584 204.333 20.0001 199.625 20.0001 194.125V156.625C20.0001 155.244 21.1193 154.125 22.5001 154.125V154.125C23.8808 154.125 25.0001 155.244 25.0001 156.625V194.125C25.0001 202.409 31.7158 209.125 40.0001 209.125H77.5001C78.8808 209.125 80.0001 210.244 80.0001 211.625V211.625C80.0001 213.006 78.8808 214.125 77.5001 214.125H40.0001ZM22.5001 74.125C21.1193 74.125 20.0001 73.0057 20.0001 71.625V34.125C20.0001 28.625 21.9584 23.9167 25.8751 20C29.7917 16.0833 34.5001 14.125 40.0001 14.125H77.5001C78.8808 14.125 80.0001 15.2443 80.0001 16.625V16.625C80.0001 18.0057 78.8808 19.125 77.5001 19.125H40.0001C31.7158 19.125 25.0001 25.8407 25.0001 34.125V71.625C25.0001 73.0057 23.8808 74.125 22.5001 74.125V74.125ZM162.5 214.125C161.119 214.125 160 213.006 160 211.625V211.625C160 210.244 161.119 209.125 162.5 209.125H200C208.284 209.125 215 202.409 215 194.125V156.625C215 155.244 216.119 154.125 217.5 154.125V154.125C218.881 154.125 220 155.244 220 156.625V194.125C220 199.625 218.042 204.333 214.125 208.25C210.208 212.167 205.5 214.125 200 214.125H162.5ZM217.5 74.125C216.119 74.125 215 73.0057 215 71.625V34.125C215 25.8407 208.284 19.125 200 19.125H162.5C161.119 19.125 160 18.0057 160 16.625V16.625C160 15.2443 161.119 14.125 162.5 14.125H200C205.5 14.125 210.208 16.0833 214.125 20C218.042 23.9167 220 28.625 220 34.125V71.625C220 73.0057 218.881 74.125 217.5 74.125V74.125Z" fill="white"/>
</g>
</svg>
